<svg version="1" xmlns="http://www.w3.org/2000/svg" width="346.667" height="346.667" viewBox="0 0 260.000000 260.000000"><path d="M72.7 65.6c-1.7 1.8-.4 3.2 3.7 3.7 2.4.4 5.5 1.1 6.9 1.8 5.2 2.3 5.2 2.6 5.4 56.4.1 60.5.4 59.3-11.2 61.2-3.5.6-5.1 1.3-5.3 2.6-.3 1.6 1.5 1.7 26.7 1.7 26.4 0 27.1 0 27.1-2 0-1.6-.7-2-3.7-2-5.1 0-10.5-2.9-12.2-6.4-1-2.2-1.4-8.6-1.5-25.8l-.1-22.8 3.5-.1c1.9-.1 4.4-.2 5.5-.3 1.2-.1 3.2 1.5 5.1 3.9 1.7 2.2 8.1 10.5 14.3 18.5 6.2 8 15.1 19.6 19.9 25.7l8.7 11.3h15.7c15.1 0 15.8-.1 15.8-2 0-1.5-.7-2-2.5-2-4.2 0-9.7-3.5-14.7-9.2-4-4.5-11.5-13.7-27.8-33.8-1.9-2.4-5.4-6.6-7.7-9.4-3.4-4.1-3.9-5.2-2.5-5.4 5.9-1.2 17.4-5.7 21.2-8.3 10.5-7.2 13.6-16.9 10.8-34.5-.1-.7-1.7-3.6-3.7-6.5-4.7-7.1-11.4-11.2-23.6-14.5-.5-.2-2.1-.6-3.5-1-3.4-1-69.3-1.7-70.3-.8zm64.9 9.4c7 2.4 10.8 5.5 13.4 10.9 4.2 8.6 3.5 20.9-1.6 28.2-4.8 6.9-16.7 11.5-32.4 12.3l-8.5.4.1-25.2c0-13.9.4-25.8.8-26.5.5-.7 1.8-1.6 3-2.1 3.3-1.4 19.3-.1 25.2 2z"/></svg>